<svg xmlns="http://www.w3.org/2000/svg" width="266.667" height="266.667" version="1.0" viewBox="0 0 200 200"><ellipse cx="99.87" cy="102.206" fill="#0ad8f4" stroke="#000" rx="40.502" ry="39.724"/><path d="M74.1 27.3c-1.7 2.1-.3 4.9 2.3 4.5 1.5-.2 2.1-1 2.1-2.8 0-2.8-2.6-3.8-4.4-1.7zM115.7 30.5c-2.6 2.5-2.1 6 1.3 8.8 4.6 3.9 3.9 6.4-.8 3.1-2.6-1.8-5.2-1.2-5.2 1 0 3.8 9.8 7 12.9 4.2 3.4-3.1 3.3-5.6-.5-9.4-3.8-3.8-3.8-5.1.1-3.4 3.6 1.6 4.5 1.5 4.5-.7 0-2.6-2.3-4.2-6.8-4.8-2.8-.4-4.3-.1-5.5 1.2zM87.5 32c-1.4 1.6-1.7 3-1.2 7.2.7 5.7 1.8 7.4 4.1 6.5 1.2-.5 1.6-2.1 1.6-6.2 0-4.8.3-5.6 1.8-5.3 1.3.2 1.8 1.6 2.2 5.3.5 4.5.7 5 3 5 2.4 0 2.5-.2 2.2-5.4-.4-7.9-1.3-9.1-7.1-9.1-3.5 0-5.3.5-6.6 2zM76.8 32.8c-2.2.4-2.2 1.2 0 8.7 1.8 5.9 3.4 7.4 6 5.6 1.1-.7 1.1-1.9-.3-6.9-1.9-6.6-3-8.1-5.7-7.4zM61 36c-1.2.8-.9 1.9 2 7.6 4.3 8.2 6 9.5 9.8 7.4 1.5-.9 2.8-2.4 3-3.4.3-1.5-.1-1.8-2.2-1.4-3.6.7-5.5-2.5-3.1-5.2 2.1-2.4 1-4.3-2-3.6-1.5.4-2.5.1-2.9-.9-.6-1.7-2.4-1.9-4.6-.5zM128.7 47.4c-2.6 4-4.7 7.6-4.7 7.9 0 .4.9 1.1 2.1 1.7 1.6.9 2.3.8 3.2-.4 1-1.4 1.7-1.4 4.3-.5 4.5 1.7 8.2.4 10.1-3.5 2.1-4.5 1.1-8.2-3-10.6-5.5-3.4-6.9-2.7-12 5.4zM139 49c-1.4 2.6-3 3.4-4.2 2.2-.8-.8-.6-1.9.6-3.7 1.4-2.1 2-2.4 3.1-1.5 1.1.9 1.2 1.7.5 3zM52.5 45.5c-3.3 3.2-3.2 4.4 1 9.9 3.8 4.8 5.5 5.6 7.5 3.1 1-1.2.6-2.2-2-5.5-3.1-3.9-3.2-4.2-1.5-6 3.6-4-1.1-5.5-5-1.5zM147.7 54.8c-6.4 6.4-6.7 7-5.2 8.6.9.9 2 1.6 2.4 1.6.3 0 3.5-2.9 7-6.4 4.1-4.2 6.2-7 5.9-8.2-.7-3.6-3.3-2.4-10.1 4.4zM86 54.5c-13.2 4.2-24.5 13.7-30.5 25.8-15.1 30.7 3 66 36.8 71.8 13.2 2.2 28.8-2.1 39.4-10.7 22.7-18.6 24.3-53.3 3.4-74.1-5.8-5.8-14.9-11.2-22.6-13.2-5.6-1.5-21.1-1.2-26.5.4zM112 75v7h-3c-3.4 0-4.2 2.5-1 3.3 1 .3 2.7 2.1 3.6 4 1.6 3.4 1.8 3.5 8.1 3.6 4.7.1 6.3-.3 6-1.2-.2-.6-2-1.2-3.9-1.2-2 0-3.4-.3-3.1-.8 1.1-1.8 5.8-.5 8.9 2.5l3.4 3.3v16.2c0 8.9-.3 16.4-.7 16.6-.5.3-.8-2-.8-5.1v-5.7l-8.2-.3c-7.3-.2-8.3-.1-9.2 1.7-1.2 2.2-7.1 6.1-9.2 6.1-.8-.1 0-.7 1.6-1.4 10.1-4.5 11.4-18 2.2-23.6-1.8-1.1-2.7-2-2-2 .7 0 2.8 1.3 4.6 3 3.3 2.8 3.9 3 12.1 3h8.7l-.3-4.8-.3-4.7h-59l-.3 4.7-.3 4.8h8.7c8.2 0 8.8-.2 12.1-3 1.8-1.7 3.9-3 4.6-3 .7 0-.2.9-2 2-9.2 5.6-7.9 19.1 2.2 23.6 1.7.7 2.4 1.3 1.6 1.4-2.1 0-8-3.9-9.2-6.1-.9-1.8-1.9-1.9-9.2-1.7l-8.2.3v5.7c0 3.1-.3 5.4-.7 5.1-.5-.2-.8-7.8-.8-16.9 0-15.3.1-16.5 2-17.6 1.1-.7 2-1.8 2-2.4 0-2.1 7.2-3.5 8.3-1.7.3.5-1.1.8-3.1.8-1.9 0-3.7.6-3.9 1.2-.3.9 1.3 1.3 6 1.2 6.3-.1 6.5-.2 8.1-3.6.9-1.9 2.6-3.7 3.6-4 3.2-.8 2.4-3.3-1-3.3h-3V68h24v7zm13 24c0 2.7-1.9 3.5-3.8 1.7-1.2-1.3-1.3-1.9-.3-3.1 1.6-1.9 4.1-1 4.1 1.4zm-46.3 1.2c-.3.7-.5.2-.5-1.2s.2-1.9.5-1.3c.2.7.2 1.9 0 2.5zm5 0c-.3.7-.5.2-.5-1.2s.2-1.9.5-1.3c.2.7.2 1.9 0 2.5zm18.1-2.5c-1 .2-2.6.2-3.5 0-1-.3-.2-.5 1.7-.5s2.7.2 1.8.5zM75 99c0 .5-.4 1-1 1-.5 0-1-.5-1-1 0-.6.5-1 1-1 .6 0 1 .4 1 1zm30.1 4c2.2 1.2 4.9 6.1 4.9 8.7-.1 1-.7 0-1.5-2.2-1.8-4.9-3.8-6.5-8.5-6.5s-6.7 1.6-8.5 6.5c-.8 2.2-1.4 3.2-1.5 2.2 0-2.5 2.7-7.4 4.7-8.6 2.3-1.3 7.9-1.4 10.4-.1zm-1.1 4.5c.6.8 1 2 .7 2.7-.4.9-.6.8-.6-.3-.1-.9-1.1-2.1-2.3-2.7-1.7-.8-1.8-1.1-.7-1.1.9-.1 2.2.6 2.9 1.4zm-5.3 8.4c1 .6 1.4 1.1.9 1.1-1.6 0-4.6-3.2-4.5-4.9 0-1.1.3-.9.9.6.5 1.2 1.7 2.6 2.7 3.2zm1.3 4.1c2.2 0 4.1-.9 6.1-2.9 1.6-1.6 2.9-2.6 2.9-2.1 0 1.8-6.3 6-9 6s-9-4.2-9-6c0-.5 1.3.5 2.9 2.1 2 2 3.9 2.9 6.1 2.9z"/><path d="M89 74.5V80h22V69H89v5.5zm19-2.8c0 .5-3.6.8-8 .8s-8-.3-8-.8c0-.4 3.6-.7 8-.7s8 .3 8 .7zm-3.7 6c-2.4.2-6.2.2-8.5 0-2.4-.2-.5-.4 4.2-.4s6.6.2 4.3.4zM95 83.5c0 1.1 1.2 1.5 5 1.5s5-.4 5-1.5-1.2-1.5-5-1.5-5 .4-5 1.5zM89.5 89c-.8 1.6-1.5 3.1-1.5 3.5 0 .3 5.4.5 12 .5s12-.2 12-.5c0-.4-.7-1.9-1.5-3.5-1.5-3-1.6-3-10.5-3s-9 0-10.5 3zm14.3.7c-2.1.2-5.5.2-7.5 0-2.1-.2-.4-.4 3.7-.4 4.1 0 5.8.2 3.8.4zM70 110.5v5.5h16v-3.9c0-2.2.3-4.6.6-5.5.5-1.4-.6-1.6-8-1.6H70v5.5zM113.5 110.5v5.5H130v-11h-16.5v5.5zM121.5 98c-.7 1.2.2 3 1.6 3 1.2 0 1.2-2.7 0-3.5-.5-.3-1.2-.1-1.6.5zM39.1 58.9c-2.4 3.3-2.8 7.1-.7 7.1.7 0 2.1-1.2 3.1-2.6.9-1.4 1.9-2.3 2.2-2 .3.3.1 1.1-.4 1.8-3.3 4.2-1.6 8.8 3.2 8.8 2.9 0 7.5-5.2 7.5-8.5 0-3.2-5.7-7.5-9.8-7.5-2.2 0-3.6.8-5.1 2.9zm9.7 6.3c-.2.6-1 1.4-1.6 1.6-.7.2-1-.2-.6-1.2.7-1.8 2.8-2.2 2.2-.4zM160.7 57.4c-.7 1.8 2 4.9 3.7 4.3.6-.2 1.1-1.5 1.1-2.8 0-2.8-3.9-4-4.8-1.5zM152.7 63.1c-3.2 2.2-5.7 4.3-5.7 4.8 0 .4.6 1.5 1.3 2.6 1.3 1.7 1.7 1.6 7-2.5 5.8-4.4 6.7-5.9 4.4-7.9-1.1-.8-2.7-.2-7 3zM159.5 70.3c-5.1 2.7-6 3.7-6.3 6.3-.2 2 .4 3.6 1.7 4.8 2.4 2.2 4.5 1.2 3.7-1.9-.5-1.8-.1-2.5 1.4-3 1.2-.4 2.7-.1 3.5.5 2.1 1.7 4.8.5 4-1.9-.3-1 .1-2.3 1-3.1 1.1-.9 1.2-1.7.4-3.1-1.3-2.5-2.4-2.4-9.4 1.4zM26.8 74.6c-1.1 2.4-.9 2.8 2.2 5.5l3.5 2.8-3.7.1c-2.9 0-4.1.6-5.4 2.6-2.2 3.3-1.1 4.4 8 7.9 6.1 2.2 7.2 2.4 8.4 1.1 2.2-2.2.9-4.1-3.9-5.6l-4.4-1.4 3.5-.5c4.1-.7 5.1-3.2 2.3-6.3-1.8-2-1.8-2.1.7-1.4 1.4.4 3.3 1 4.2 1.2 1.9.5 4.5-3.3 3.1-4.6-.9-.8-13.4-4-15.8-4-.8 0-2.1 1.2-2.7 2.6zM167 82.2c-8.3 2.5-10.6 4.6-9.3 8.4 1.3 3.9 5.3 4.7 5.3 1.1 0-3.2 3.4-4.2 5.2-1.5 1.9 2.8 5 1.4 4.2-1.8-.5-1.8-.2-2.4 1-2.4 1.6 0 2.4-4.5.9-5.3-.5-.2-3.7.5-7.3 1.5zM35.4 124.4c-1.5 1.2-1.7 1.8-.8 3.3 1.3 1.9 5.1 2 6.9.2.7-.8.1-.9-2.2-.4-4.3.9-5.1-1.1-1.1-2.9 2.5-1.1 2.8-1.5 1.2-1.5-1.1-.1-2.9.5-4 1.3zM160.4 124.5c1.7 1.3 1.7 1.5.4 1.5-.9 0-1.9.4-2.3.9-.3.6 1.2.9 3.6.8l4.1-.1-2.7-2.3c-1.4-1.3-3.1-2.3-3.8-2.3-.7 0-.3.7.7 1.5zM155.2 132.4c-2.2 1.3-2.1 1.3 1.8 2.9 2.2.8 4 1.2 4 .7s-.9-1.2-2-1.5c-3-1-2.5-2.8.6-2.1 1.7.5 2.3.3 1.9-.4-.8-1.3-3.4-1.1-6.3.4zM38.3 132.7c-.7.2-1.3.9-1.3 1.4 0 .6.7.6 1.9 0 2.8-1.5 3.5.1.9 2.1-2.7 2-1.1 2.5 1.7.4 3.2-2.3.7-5.5-3.2-3.9zM152.6 139.6c-.4.9-.5 1.8-.4 1.9 6.4 4.4 6.7 4.4 5.9.2-.8-3.6-4.4-5-5.5-2.1zm4.2 1.3c.3.8-.1 1.2-.9.9-.7-.2-1.5-1-1.7-1.7-.3-.8.1-1.2.9-.9.7.2 1.5 1 1.7 1.7zM42 140.6c-1.1 1.2-1.1 1.8.2 3 1.4 1.4 1.8 1.4 4.2-.1 2.3-1.6 3.9-4.4 1.7-3-.5.3-1.2.1-1.6-.5-.9-1.5-3.1-1.2-4.5.6zm3.1 1.7c-1.3 1.3-2.6.3-1.6-1.2.3-.6 1.1-.8 1.7-.5.6.4.6 1-.1 1.7zM148.7 144.7c-1.1 1-.8 2.5.3 1.8.5-.3.7 0 .4.8-.8 2.2 1.6 3.2 3.4 1.3 1.5-1.4 1.5-1.7-.3-3.1-2.3-1.6-2.9-1.8-3.8-.8zM47.2 146.7c-1 2-.6 4.3.9 4.3.4 0 .6-.8.2-1.8-.5-1.4-.3-1.5.8-.5 2 1.9 3.1 1.6 2.7-.9-.4-2.8-3.4-3.5-4.6-1.1zM143.5 150.1c-.4.5.1 1.9 1.1 3 2 2.2 3.3 1.7 1.5-.5-.7-.8-1-2-.6-2.6.3-.5.2-1-.4-1-.5 0-1.3.5-1.6 1.1zM53.2 152c-1.8 2.9-1.5 3.6.7 1.6 1.1-1 2.5-1.5 3-1.1.6.3 1.1.2 1.1-.3 0-.8-2.2-2.2-3.3-2.2-.1 0-.8.9-1.5 2zM58.7 155c-1 3.7-.9 4.3.8 3.6.9-.3 1.5 0 1.5.9 0 2.1 1.4 1.8 3.6-.7 1.7-1.9 1.7-2.1.2-1.5-1.3.4-1.8.1-1.8-1 0-1.2-.3-1.3-1.4-.4-1.2 1-1.5.8-1.8-1.1l-.3-2.3-.8 2.5zM138 154.5c-2 2.4-.4 4.8 2.7 4.2 2.6-.5 2.6-.4.8.9-1.7 1.2-1.7 1.4-.2 1.4 2.6 0 3.1-2.5 1.2-5.4-2-3-2.8-3.2-4.5-1.1zm3 2.1c0 .8-.4 1.4-1 1.4-.5 0-1-.9-1-2.1 0-1.1.5-1.7 1-1.4.6.3 1 1.3 1 2.1zM131.2 157.9c-1.9 1.2-1.1 4.5 1.2 4.9 2.4.5 3.7-1.7 2.5-4-1.1-2-1.8-2.2-3.7-.9zm2.8 2.7c0 1.7-2.2 1.4-2.8-.4-.2-.7.3-1.2 1.2-1.2.9 0 1.6.7 1.6 1.6zM68 160c-1.4 2.6-1.3 3.7.7 4.4 1.8.7 3.3-.9 3.3-3.5 0-2.5-2.8-3.1-4-.9zM75.2 162c-1.2 3.2-.9 5 .8 5 .5 0 .7-.7.3-1.6-.3-.9 0-2 .7-2.4.9-.5.9-1.3.3-2.5-.9-1.5-1.2-1.3-2.1 1.5zM123 159.4c0 .1.5 1.7 1.1 3.5 1 2.9 3.9 4.4 3.9 2 0-.5-.5-.7-1.1-.3-.8.5-1-.1-.7-1.9.3-1.7 0-2.8-.9-3.1-1.7-.7-2.3-.7-2.3-.2zM108.1 165.2c-.1 2 .4 4 1 4.4.7.4.9-.2.7-1.6-.2-1.3.3-2.5 1-2.7.7-.3 1.2.4 1.2 1.6 0 1.2.4 2.1.9 2.1.4 0 .6-1.1.3-2.5-.3-1.6-1.1-2.5-2.2-2.5-1 0-2.1-.6-2.3-1.3-.3-.6-.6.5-.6 2.5zM117 163.5c-1.7 2-.5 4.5 2 4.5 1.1 0 2.3-.7 2.6-1.5.6-1.5-1.1-4.5-2.6-4.5-.4 0-1.3.7-2 1.5zm3 2.1c0 .8-.4 1.4-1 1.4-.5 0-1-.9-1-2.1 0-1.1.5-1.7 1-1.4.6.3 1 1.3 1 2.1zM80.6 164.6c-.8 2 1 4.4 3.2 4.4 1.3 0 1.2-.3-.4-1.5-1.8-1.4-1.8-1.4.4-1.5 2.9 0 2.4-2.4-.5-2.8-1.2-.2-2.3.4-2.7 1.4zM100 166.7c0 2.1.4 3.3.8 2.7.4-.6 1.5-1.3 2.5-1.7 2.5-.9 1.7-4.1-1.1-4.5-1.9-.3-2.2.1-2.2 3.5zm3.2-1.2c0 .5-.5 1.1-1.1 1.3-.6.2-1.1-.4-1.1-1.3s.5-1.5 1.1-1.3c.6.2 1.1.8 1.1 1.3zM89.1 167.2c.2 2.8.2 2.9.6.8.3-1.4 1-2.8 1.7-3.2.7-.5.5-.8-.6-.8-1.4 0-1.8.8-1.7 3.2z"/></svg>